<mxfile host="app.diagrams.net" agent="Mozilla/5.0 (Windows NT 10.0; Win64; x64) AppleWebKit/537.36 (KHTML, like Gecko) Chrome/128.0.0.0 Safari/537.36 OPR/114.0.0.0" version="24.8.4">
  <diagram name="Page-1" id="10a91c8b-09ff-31b1-d368-03940ed4cc9e">
    <mxGraphModel dx="1009" dy="539" grid="1" gridSize="10" guides="1" tooltips="1" connect="1" arrows="1" fold="1" page="1" pageScale="1" pageWidth="1100" pageHeight="850" background="none" math="0" shadow="0">
      <root>
        <mxCell id="0" />
        <mxCell id="1" parent="0" />
        <mxCell id="MgijXI-POI6Xpa1d7Py2-1" value="Landing page" style="rounded=0;whiteSpace=wrap;html=1;" vertex="1" parent="1">
          <mxGeometry x="500" y="110" width="120" height="60" as="geometry" />
        </mxCell>
        <mxCell id="MgijXI-POI6Xpa1d7Py2-12" value="" style="edgeStyle=orthogonalEdgeStyle;rounded=0;orthogonalLoop=1;jettySize=auto;html=1;entryX=0.5;entryY=0;entryDx=0;entryDy=0;" edge="1" parent="1" source="MgijXI-POI6Xpa1d7Py2-1" target="MgijXI-POI6Xpa1d7Py2-6">
          <mxGeometry relative="1" as="geometry">
            <mxPoint x="552" y="200" as="sourcePoint" />
            <mxPoint x="472.8399999999999" y="317.20000000000005" as="targetPoint" />
            <Array as="points">
              <mxPoint x="560" y="180" />
              <mxPoint x="410" y="180" />
            </Array>
          </mxGeometry>
        </mxCell>
        <mxCell id="MgijXI-POI6Xpa1d7Py2-24" value="" style="edgeStyle=orthogonalEdgeStyle;rounded=0;orthogonalLoop=1;jettySize=auto;html=1;" edge="1" parent="1" source="MgijXI-POI6Xpa1d7Py2-6" target="MgijXI-POI6Xpa1d7Py2-22">
          <mxGeometry relative="1" as="geometry" />
        </mxCell>
        <mxCell id="MgijXI-POI6Xpa1d7Py2-6" value="About me" style="rounded=0;whiteSpace=wrap;html=1;" vertex="1" parent="1">
          <mxGeometry x="350" y="280" width="120" height="60" as="geometry" />
        </mxCell>
        <mxCell id="MgijXI-POI6Xpa1d7Py2-28" value="" style="edgeStyle=orthogonalEdgeStyle;rounded=0;orthogonalLoop=1;jettySize=auto;html=1;" edge="1" parent="1" source="MgijXI-POI6Xpa1d7Py2-7" target="MgijXI-POI6Xpa1d7Py2-26">
          <mxGeometry relative="1" as="geometry" />
        </mxCell>
        <mxCell id="MgijXI-POI6Xpa1d7Py2-7" value="Favorites" style="rounded=0;whiteSpace=wrap;html=1;" vertex="1" parent="1">
          <mxGeometry x="620" y="280" width="120" height="60" as="geometry" />
        </mxCell>
        <mxCell id="MgijXI-POI6Xpa1d7Py2-20" value="" style="edgeStyle=orthogonalEdgeStyle;rounded=0;orthogonalLoop=1;jettySize=auto;html=1;" edge="1" parent="1" source="MgijXI-POI6Xpa1d7Py2-8" target="MgijXI-POI6Xpa1d7Py2-18">
          <mxGeometry relative="1" as="geometry" />
        </mxCell>
        <mxCell id="MgijXI-POI6Xpa1d7Py2-8" value="Home" style="rounded=0;whiteSpace=wrap;html=1;" vertex="1" parent="1">
          <mxGeometry x="120" y="280" width="120" height="60" as="geometry" />
        </mxCell>
        <mxCell id="MgijXI-POI6Xpa1d7Py2-33" value="" style="edgeStyle=orthogonalEdgeStyle;rounded=0;orthogonalLoop=1;jettySize=auto;html=1;" edge="1" parent="1" source="MgijXI-POI6Xpa1d7Py2-10" target="MgijXI-POI6Xpa1d7Py2-30">
          <mxGeometry relative="1" as="geometry" />
        </mxCell>
        <mxCell id="MgijXI-POI6Xpa1d7Py2-10" value="Contact" style="rounded=0;whiteSpace=wrap;html=1;" vertex="1" parent="1">
          <mxGeometry x="820" y="280" width="120" height="60" as="geometry" />
        </mxCell>
        <mxCell id="MgijXI-POI6Xpa1d7Py2-13" value="" style="edgeStyle=orthogonalEdgeStyle;rounded=0;orthogonalLoop=1;jettySize=auto;html=1;entryX=0.5;entryY=0;entryDx=0;entryDy=0;" edge="1" parent="1" source="MgijXI-POI6Xpa1d7Py2-1" target="MgijXI-POI6Xpa1d7Py2-8">
          <mxGeometry relative="1" as="geometry">
            <mxPoint x="570" y="180" as="sourcePoint" />
            <mxPoint x="482.8399999999999" y="327.20000000000005" as="targetPoint" />
            <Array as="points">
              <mxPoint x="560" y="180" />
              <mxPoint x="180" y="180" />
            </Array>
          </mxGeometry>
        </mxCell>
        <mxCell id="MgijXI-POI6Xpa1d7Py2-14" value="" style="edgeStyle=orthogonalEdgeStyle;rounded=0;orthogonalLoop=1;jettySize=auto;html=1;entryX=0.5;entryY=0;entryDx=0;entryDy=0;exitX=0.5;exitY=1;exitDx=0;exitDy=0;" edge="1" parent="1" source="MgijXI-POI6Xpa1d7Py2-1" target="MgijXI-POI6Xpa1d7Py2-7">
          <mxGeometry relative="1" as="geometry">
            <mxPoint x="578" y="190" as="sourcePoint" />
            <mxPoint x="698" y="300" as="targetPoint" />
            <Array as="points">
              <mxPoint x="560" y="180" />
              <mxPoint x="680" y="180" />
            </Array>
          </mxGeometry>
        </mxCell>
        <mxCell id="MgijXI-POI6Xpa1d7Py2-15" value="" style="edgeStyle=orthogonalEdgeStyle;rounded=0;orthogonalLoop=1;jettySize=auto;html=1;entryX=0.5;entryY=0;entryDx=0;entryDy=0;exitX=0.5;exitY=1;exitDx=0;exitDy=0;" edge="1" parent="1" source="MgijXI-POI6Xpa1d7Py2-1" target="MgijXI-POI6Xpa1d7Py2-10">
          <mxGeometry relative="1" as="geometry">
            <mxPoint x="947.1600000000001" y="110" as="sourcePoint" />
            <mxPoint x="860" y="257.20000000000005" as="targetPoint" />
            <Array as="points">
              <mxPoint x="560" y="180" />
              <mxPoint x="880" y="180" />
            </Array>
          </mxGeometry>
        </mxCell>
        <mxCell id="MgijXI-POI6Xpa1d7Py2-17" value="image" style="rounded=1;whiteSpace=wrap;html=1;" vertex="1" parent="1">
          <mxGeometry x="120" y="480" width="120" height="40" as="geometry" />
        </mxCell>
        <mxCell id="MgijXI-POI6Xpa1d7Py2-21" value="" style="edgeStyle=orthogonalEdgeStyle;rounded=0;orthogonalLoop=1;jettySize=auto;html=1;" edge="1" parent="1" source="MgijXI-POI6Xpa1d7Py2-18" target="MgijXI-POI6Xpa1d7Py2-17">
          <mxGeometry relative="1" as="geometry" />
        </mxCell>
        <mxCell id="MgijXI-POI6Xpa1d7Py2-18" value="Text" style="rounded=1;whiteSpace=wrap;html=1;" vertex="1" parent="1">
          <mxGeometry x="120" y="400" width="120" height="40" as="geometry" />
        </mxCell>
        <mxCell id="MgijXI-POI6Xpa1d7Py2-25" value="" style="edgeStyle=orthogonalEdgeStyle;rounded=0;orthogonalLoop=1;jettySize=auto;html=1;" edge="1" parent="1" source="MgijXI-POI6Xpa1d7Py2-22" target="MgijXI-POI6Xpa1d7Py2-23">
          <mxGeometry relative="1" as="geometry" />
        </mxCell>
        <mxCell id="MgijXI-POI6Xpa1d7Py2-22" value="Hobby&#39;s" style="rounded=1;whiteSpace=wrap;html=1;" vertex="1" parent="1">
          <mxGeometry x="350" y="400" width="120" height="40" as="geometry" />
        </mxCell>
        <mxCell id="MgijXI-POI6Xpa1d7Py2-23" value="Video" style="rounded=1;whiteSpace=wrap;html=1;" vertex="1" parent="1">
          <mxGeometry x="350" y="480" width="120" height="40" as="geometry" />
        </mxCell>
        <mxCell id="MgijXI-POI6Xpa1d7Py2-26" value="Table" style="rounded=1;whiteSpace=wrap;html=1;" vertex="1" parent="1">
          <mxGeometry x="620" y="400" width="120" height="40" as="geometry" />
        </mxCell>
        <mxCell id="MgijXI-POI6Xpa1d7Py2-34" value="" style="edgeStyle=orthogonalEdgeStyle;rounded=0;orthogonalLoop=1;jettySize=auto;html=1;" edge="1" parent="1" source="MgijXI-POI6Xpa1d7Py2-30" target="MgijXI-POI6Xpa1d7Py2-31">
          <mxGeometry relative="1" as="geometry" />
        </mxCell>
        <mxCell id="MgijXI-POI6Xpa1d7Py2-30" value="Name" style="rounded=1;whiteSpace=wrap;html=1;" vertex="1" parent="1">
          <mxGeometry x="820" y="390" width="120" height="40" as="geometry" />
        </mxCell>
        <mxCell id="MgijXI-POI6Xpa1d7Py2-35" value="" style="edgeStyle=orthogonalEdgeStyle;rounded=0;orthogonalLoop=1;jettySize=auto;html=1;" edge="1" parent="1" source="MgijXI-POI6Xpa1d7Py2-31" target="MgijXI-POI6Xpa1d7Py2-32">
          <mxGeometry relative="1" as="geometry" />
        </mxCell>
        <mxCell id="MgijXI-POI6Xpa1d7Py2-31" value="Email" style="rounded=1;whiteSpace=wrap;html=1;" vertex="1" parent="1">
          <mxGeometry x="820" y="480" width="120" height="40" as="geometry" />
        </mxCell>
        <mxCell id="MgijXI-POI6Xpa1d7Py2-32" value="Message" style="rounded=1;whiteSpace=wrap;html=1;" vertex="1" parent="1">
          <mxGeometry x="820" y="570" width="120" height="40" as="geometry" />
        </mxCell>
      </root>
    </mxGraphModel>
  </diagram>
</mxfile>
